<?xml version="1.0" encoding="UTF-8"?>
<!DOCTYPE svg PUBLIC "-//W3C//DTD SVG 1.1//EN" "http://www.w3.org/Graphics/SVG/1.1/DTD/svg11.dtd">
<svg xmlns="http://www.w3.org/2000/svg" version="1.1" width="500px" height="500px" style="shape-rendering:geometricPrecision; text-rendering:geometricPrecision; image-rendering:optimizeQuality; fill-rule:evenodd; clip-rule:evenodd" xmlns:xlink="http://www.w3.org/1999/xlink">
<g><path style="opacity:1" fill="#fefefe" d="M -0.5,-0.5 C 166.167,-0.5 332.833,-0.5 499.5,-0.5C 499.5,166.167 499.5,332.833 499.5,499.5C 332.833,499.5 166.167,499.5 -0.5,499.5C -0.5,332.833 -0.5,166.167 -0.5,-0.5 Z"/></g>
<g><path style="opacity:1" fill="#2eb1dd" d="M 77.5,215.5 C 86.0689,214.826 94.4022,215.826 102.5,218.5C 103.823,220.204 103.49,221.537 101.5,222.5C 86.9334,215.444 74.1001,217.777 63,229.5C 54.4118,242.791 54.4118,256.124 63,269.5C 74.2592,281.254 87.2592,283.588 102,276.5C 103.169,277.009 104.002,277.842 104.5,279C 92.5144,284.962 80.5144,284.962 68.5,279C 53.0372,266.986 48.8706,251.819 56,233.5C 60.9423,224.715 68.109,218.715 77.5,215.5 Z"/></g>
<g><path style="opacity:1" fill="#2cb1dd" d="M 87.5,222.5 C 97.7079,222.435 105.375,226.768 110.5,235.5C 109.758,236.287 108.925,236.953 108,237.5C 103.225,230.028 96.3914,226.028 87.5,225.5C 87.5,224.5 87.5,223.5 87.5,222.5 Z"/></g>
<g><path style="opacity:1" fill="#1daddb" d="M 82.5,228.5 C 101.604,229.1 109.437,238.766 106,257.5C 101.868,265.575 95.2016,269.909 86,270.5C 71.0739,267.571 64.7406,258.571 67,243.5C 69.5032,235.679 74.6699,230.679 82.5,228.5 Z"/></g>
<g><path style="opacity:1" fill="#1eacdb" d="M 114.5,230.5 C 122.442,237.27 130.276,244.27 138,251.5C 138.5,244.842 138.666,238.175 138.5,231.5C 141.167,231.5 143.833,231.5 146.5,231.5C 146.5,244.5 146.5,257.5 146.5,270.5C 145.448,270.649 144.448,270.483 143.5,270C 137.032,262.53 130.198,255.364 123,248.5C 122.5,255.826 122.334,263.159 122.5,270.5C 119.552,270.777 116.719,270.444 114,269.5C 113.187,256.425 113.354,243.425 114.5,230.5 Z"/></g>
<g><path style="opacity:1" fill="#15abda" d="M 154.5,231.5 C 162.5,231.5 170.5,231.5 178.5,231.5C 178.5,234.167 178.5,236.833 178.5,239.5C 173.167,239.5 167.833,239.5 162.5,239.5C 162.5,241.833 162.5,244.167 162.5,246.5C 167.167,246.5 171.833,246.5 176.5,246.5C 176.5,249.167 176.5,251.833 176.5,254.5C 171.833,254.5 167.167,254.5 162.5,254.5C 162.5,256.833 162.5,259.167 162.5,261.5C 167.833,261.5 173.167,261.5 178.5,261.5C 178.5,264.167 178.5,266.833 178.5,269.5C 170.5,269.5 162.5,269.5 154.5,269.5C 154.5,256.833 154.5,244.167 154.5,231.5 Z"/></g>
<g><path style="opacity:1" fill="#3f535c" d="M 206.5,231.5 C 209.167,231.5 211.833,231.5 214.5,231.5C 214.5,244.167 214.5,256.833 214.5,269.5C 211.833,269.5 209.167,269.5 206.5,269.5C 206.5,256.833 206.5,244.167 206.5,231.5 Z"/></g>
<g><path style="opacity:1" fill="#43555f" d="M 222.5,231.5 C 229.175,231.334 235.842,231.5 242.5,232C 255.328,238.804 258.494,248.638 252,261.5C 249.313,265.194 245.813,267.694 241.5,269C 235.175,269.5 228.842,269.666 222.5,269.5C 222.5,256.833 222.5,244.167 222.5,231.5 Z"/></g>
<g><path style="opacity:1" fill="#40535d" d="M 270.5,239.5 C 269.532,241.607 269.198,243.941 269.5,246.5C 274.167,246.5 278.833,246.5 283.5,246.5C 283.5,249.167 283.5,251.833 283.5,254.5C 279.167,254.5 274.833,254.5 270.5,254.5C 269.527,256.948 269.194,259.615 269.5,262.5C 274.833,262.5 280.167,262.5 285.5,262.5C 286.468,264.607 286.802,266.941 286.5,269.5C 278.167,269.5 269.833,269.5 261.5,269.5C 261.5,256.833 261.5,244.167 261.5,231.5C 269.5,231.5 277.5,231.5 285.5,231.5C 285.5,234.167 285.5,236.833 285.5,239.5C 280.5,239.5 275.5,239.5 270.5,239.5 Z"/></g>
<g><path style="opacity:1" fill="#42555f" d="M 324.5,231.5 C 325.147,244.544 324.48,257.211 322.5,269.5C 315.202,262.703 308.035,255.703 301,248.5C 300.5,255.492 300.334,262.492 300.5,269.5C 297.833,269.5 295.167,269.5 292.5,269.5C 292.5,256.833 292.5,244.167 292.5,231.5C 294.783,231.608 296.783,232.441 298.5,234C 304.333,239.833 310.167,245.667 316,251.5C 316.5,244.842 316.666,238.175 316.5,231.5C 319.167,231.5 321.833,231.5 324.5,231.5 Z"/></g>
<g><path style="opacity:1" fill="#445660" d="M 332.5,231.5 C 341.167,231.5 349.833,231.5 358.5,231.5C 358.5,234.167 358.5,236.833 358.5,239.5C 355.833,239.5 353.167,239.5 350.5,239.5C 350.5,249.5 350.5,259.5 350.5,269.5C 347.5,269.5 344.5,269.5 341.5,269.5C 341.5,259.5 341.5,249.5 341.5,239.5C 338.5,239.5 335.5,239.5 332.5,239.5C 332.5,236.833 332.5,234.167 332.5,231.5 Z"/></g>
<g><path style="opacity:1" fill="#3f535c" d="M 366.5,231.5 C 369.167,231.5 371.833,231.5 374.5,231.5C 374.5,244.167 374.5,256.833 374.5,269.5C 371.833,269.5 369.167,269.5 366.5,269.5C 366.5,256.833 366.5,244.167 366.5,231.5 Z"/></g>
<g><path style="opacity:1" fill="#445660" d="M 381.5,231.5 C 390.5,231.5 399.5,231.5 408.5,231.5C 408.5,234.167 408.5,236.833 408.5,239.5C 405.5,239.5 402.5,239.5 399.5,239.5C 399.5,249.5 399.5,259.5 399.5,269.5C 396.5,269.5 393.5,269.5 390.5,269.5C 390.5,259.5 390.5,249.5 390.5,239.5C 387.813,239.664 385.146,239.497 382.5,239C 381.565,236.619 381.232,234.119 381.5,231.5 Z"/></g>
<g><path style="opacity:1" fill="#455761" d="M 413.5,231.5 C 416.572,231.183 419.572,231.516 422.5,232.5C 424.833,235.833 427.167,239.167 429.5,242.5C 432.711,239.451 435.377,235.951 437.5,232C 440.554,231.179 443.554,231.345 446.5,232.5C 442.667,238.167 438.833,243.833 435,249.5C 434.5,256.158 434.334,262.825 434.5,269.5C 431.5,269.5 428.5,269.5 425.5,269.5C 425.666,263.158 425.5,256.825 425,250.5C 420.474,244.499 416.64,238.165 413.5,231.5 Z"/></g>
<g><path style="opacity:1" fill="#808d93" d="M 324.5,231.5 C 325.495,244.323 325.829,257.323 325.5,270.5C 324.209,270.737 323.209,270.404 322.5,269.5C 324.48,257.211 325.147,244.544 324.5,231.5 Z"/></g>
<g><path style="opacity:1" fill="#fbfdfe" d="M 83.5,237.5 C 97.0416,238.244 101.208,244.911 96,257.5C 86.4809,264.193 79.4809,262.193 75,251.5C 74.5126,244.807 77.3459,240.14 83.5,237.5 Z"/></g>
<g><path style="opacity:1" fill="#fbfcfc" d="M 230.5,239.5 C 243.126,238.622 247.96,244.288 245,256.5C 241.219,260.99 236.386,262.657 230.5,261.5C 230.5,254.167 230.5,246.833 230.5,239.5 Z"/></g>
<g><path style="opacity:1" fill="#c3c9cc" d="M 270.5,239.5 C 270.5,241.5 270.5,243.5 270.5,245.5C 275.032,245.182 279.366,245.515 283.5,246.5C 278.833,246.5 274.167,246.5 269.5,246.5C 269.198,243.941 269.532,241.607 270.5,239.5 Z"/></g>
<g><path style="opacity:1" fill="#79868e" d="M 270.5,254.5 C 270.5,256.833 270.5,259.167 270.5,261.5C 275.695,261.179 280.695,261.513 285.5,262.5C 280.167,262.5 274.833,262.5 269.5,262.5C 269.194,259.615 269.527,256.948 270.5,254.5 Z"/></g>
<g><path style="opacity:1" fill="#32b2dd" d="M 62.5,236.5 C 63.5,236.5 64.5,236.5 65.5,236.5C 63.5656,243.01 63.0656,249.677 64,256.5C 71.3202,272.569 83.1535,277.069 99.5,270C 103,267.833 105.833,265 108,261.5C 108.925,262.047 109.758,262.713 110.5,263.5C 101.854,275.993 90.1873,279.826 75.5,275C 60.0775,265.899 55.7442,253.066 62.5,236.5 Z"/></g>
</svg>
